<svg enable-background="new 0 0 50 50" height="50" viewBox="0 0 50 50" width="50" xmlns="http://www.w3.org/2000/svg"><path d="m0 0h50v50h-50z" fill="none"/><path d="m30.933 32.528c-.026-.287-.045-.748-.06-1.226 4.345-.445 7.393-1.487 7.393-2.701-.012-.002-.011-.05-.011-.07-3.248-2.927 2.816-23.728-8.473-23.306-.709-.6-1.95-1.133-3.73-1.133-15.291 1.157-8.53 20.8-12.014 24.508-.002.001-.005.001-.007.001 0 .002.001.004.001.006 0 .001-.001.002-.001.002s.001 0 .002.001c.014 1.189 2.959 2.212 7.178 2.668-.012.29-.037.649-.092 1.25-1.752 4.71-13.573 3.388-14.119 12.472h38c-.545-9.084-12.315-7.762-14.067-12.472z"/></svg>